<?xml version="1.0" encoding="UTF-8" standalone="no"?>
<!-- Created with Inkscape (http://www.inkscape.org/) -->

<svg
   version="1.1"
   id="svg1"
   width="1000"
   height="300"
   viewBox="0 0 1000 300"
   sodipodi:docname="logo-header.svg"
   inkscape:version="1.4.3 (0d15f75, 2025-12-25)"
   xmlns:inkscape="http://www.inkscape.org/namespaces/inkscape"
   xmlns:sodipodi="http://sodipodi.sourceforge.net/DTD/sodipodi-0.dtd"
   xmlns="http://www.w3.org/2000/svg"
   xmlns:svg="http://www.w3.org/2000/svg">
  <defs
     id="defs1" />
  <sodipodi:namedview
     id="namedview1"
     pagecolor="#ffffff"
     bordercolor="#000000"
     borderopacity="0.25"
     inkscape:showpageshadow="2"
     inkscape:pageopacity="0.0"
     inkscape:pagecheckerboard="0"
     inkscape:deskcolor="#d1d1d1"
     showgrid="false"
     inkscape:zoom="0.778"
     inkscape:cx="500.64267"
     inkscape:cy="149.74293"
     inkscape:window-width="1366"
     inkscape:window-height="705"
     inkscape:window-x="-8"
     inkscape:window-y="-8"
     inkscape:window-maximized="1"
     inkscape:current-layer="g1" />
  <g
     inkscape:groupmode="layer"
     inkscape:label="Image"
     id="g1">
    <path
       style="fill:#aaf800"
       d="m 202.64697,269.31364 c -0.89627,-0.89627 -0.78757,-25.56972 0.11834,-26.86029 0.40408,-0.57565 3.43885,-3.10609 6.74394,-5.62319 21.72777,-16.54752 37.55566,-43.50537 41.53921,-70.74902 1.70393,-11.65324 0.71699,-32.23661 -2.05638,-42.88739 -1.18959,-4.56845 -1.90807,-8.9703 -1.59663,-9.78191 0.46361,-1.20812 2.69943,-1.42454 12.33277,-1.19374 l 11.76651,0.2819 1.31269,4 c 6.31414,19.24027 5.08097,53.01178 -2.79338,76.5 -8.27533,24.68425 -25.64578,48.58401 -46.91042,64.54338 -9.28088,6.96542 -19.42488,12.80203 -20.45665,11.77026 z M 13.105967,188.62768 c -0.626407,-0.75477 -2.117666,-5.59227 -3.3139073,-10.75 C 6.5423733,163.86631 6.5620115,136.69001 9.8323796,122.08122 21.850317,68.396894 61.390964,29.100138 115.23182,17.331894 c 11.69854,-2.557005 41.83782,-2.557005 53.53636,0 23.49211,5.134779 43.69013,15.129075 61.88224,30.620304 8.20117,6.983582 18.63088,18.783624 17.79612,20.134295 C 248.13603,68.588922 241.00727,69 232.60487,69 h -15.2771 l -6.20465,-4.979559 C 198.85529,54.174854 184.93041,47.166303 169,42.819387 161.53869,40.783426 158.23933,40.5 142,40.5 c -17.10627,0 -19.23705,0.20606 -28.28349,2.735191 -42.994835,12.02016 -74.419793,47.288721 -80.757926,90.635469 -1.818671,12.43797 -0.761602,31.34759 2.437647,43.60641 1.432073,5.48738 2.603769,10.54988 2.603769,11.25 0,1.89874 -23.312981,1.80566 -24.894033,-0.0994 z"
       id="path4" />
    <path
       style="fill:#00a9e9"
       d="m 123.72767,283.53013 c -5.37479,-0.77005 -13.92479,-2.57298 -19,-4.00649 C 92.22344,275.99176 71.4317,265.59035 60.856124,257.57617 51.747307,250.6735 35,233.6999 35,231.37067 35,230.26868 38.041034,230 50.514128,230 h 15.514127 l 5.735873,4.67216 c 21.593501,17.58898 46.959762,26.13264 74.434592,25.07044 9.54666,-0.36908 11.80012,-0.188 12.25,0.98435 0.8789,2.2904 0.60724,20.63644 -0.32742,22.11102 -1.26452,1.99498 -22.33992,2.41912 -34.39363,0.69216 z m 40.939,-2.1968 C 164.3,280.96667 164,241.59167 164,193.83333 V 107 h -19.44098 c -13.22394,0 -19.66146,-0.35673 -20.1304,-1.1155 -0.40379,-0.65334 5.68104,-7.385831 14.68677,-16.250001 L 154.49158,74.5 139.74579,89.512107 C 131.63561,97.768766 125,104.84675 125,105.24097 c 0,0.39421 8.8875,0.83876 19.75,0.98789 L 164.5,106.5 165,194.25012 c 0.275,48.26257 0.4625,87.75007 0.41667,87.75 -0.0458,-6e-5 -0.38334,-0.30012 -0.75,-0.66679 z M 636.03041,151.37244 c -0.0784,-2.90721 2.90994,-3.42238 18.10419,-3.12105 l 15.3654,0.30473 -15.70031,0.22194 c -13.75405,0.19443 -15.82666,0.43888 -16.71959,1.97194 -0.56061,0.9625 -1.03297,1.2426 -1.04969,0.62244 z m -47.00768,-2.12165 c -8.5125,-0.16793 -15.8038,-0.63056 -16.20289,-1.02806 -0.39909,-0.3975 6.34068,-0.58731 14.97727,-0.42181 8.63659,0.16551 16.13039,0.72801 16.65289,1.25 0.5225,0.522 0.7475,0.84921 0.5,0.72714 -0.2475,-0.12206 -7.41477,-0.35934 -15.92727,-0.52727 z M 196.86232,106.73683 c 0.42021,-0.41975 16.4856,-0.64442 35.70085,-0.49928 l 34.93683,0.2639 -35.70085,0.49927 c -19.63547,0.27461 -35.35704,0.15585 -34.93683,-0.26389 z M 125.4575,90.75 C 133.73088,82.3625 140.70345,75.62845 140.95211,75.785444 141.47071,76.112867 111.81351,106 110.97001,106 c -0.30525,0 6.21412,-6.8625 14.48749,-15.25 z"
       id="path3" />
    <path
       style="fill:#0b0c0a"
       d="M 125.13991,286.99313 C 78.476306,280.41903 39.448789,252.72128 18.744821,211.48475 -11.434756,151.37546 6.427185,78.184865 61,38.341108 75.417581,27.814794 93.50432,19.661685 112.27502,15.227444 122.30276,12.85857 125.47319,12.575743 142,12.575743 c 16.52681,0 19.69724,0.282827 29.72498,2.651701 54.76585,12.93745 94.99804,54.518733 105.94989,109.502656 2.41573,12.12821 2.40897,38.44398 -0.013,50.60917 C 264.84966,239.6931 210.90016,285.64325 146,287.47901 c -7.975,0.22558 -17.36204,0.007 -20.86009,-0.48588 z m 32.98139,-4.15516 c 0.93466,-1.47458 1.20632,-19.82062 0.32742,-22.11102 -0.44988,-1.17235 -2.70334,-1.35343 -12.25,-0.98435 -27.47483,1.0622 -52.841091,-7.48146 -74.434592,-25.07044 L 66.028255,230 H 50.514128 C 38.041034,230 35,230.26868 35,231.37067 c 0,2.32923 16.747307,19.30283 25.856124,26.2055 10.575576,8.01418 31.367316,18.41559 43.871546,21.94747 5.07521,1.43351 13.62521,3.23644 19,4.00649 12.05371,1.72696 33.12911,1.30282 34.39363,-0.69216 z m 21.34905,-3.4135 c 4.88614,-1.41654 10.49168,-3.33253 12.45677,-4.25775 L 195.5,273.4845 196,190.49225 196.5,107.5 l 36,-0.5317 c 19.8,-0.29243 36.1125,-0.62993 36.25,-0.75 1.48538,-1.29705 -7.45326,-21.51834 -12.34971,-27.937916 L 253.89822,75 h -50.21161 -50.21162 l -14.86475,14.88958 c -8.62906,8.643465 -14.57687,15.3554 -14.17848,16 0.46493,0.75228 6.95648,1.11042 20.12726,1.11042 H 164 v 86.83333 c 0,47.75834 0.3,87.13334 0.66667,87.5 1.26322,1.26323 5.94392,0.65967 14.80368,-1.90886 z m 43.63327,-21.88109 C 244.36826,241.58401 261.73871,217.68425 270.01404,193 c 7.87435,-23.48822 9.10752,-57.25973 2.79338,-76.5 l -1.31269,-4 -11.76651,-0.2819 c -9.63334,-0.2308 -11.86916,-0.0144 -12.33277,1.19374 -0.31144,0.81161 0.40704,5.21346 1.59663,9.78191 2.77337,10.65078 3.76031,31.23415 2.05638,42.88739 -3.98355,27.24365 -19.81144,54.2015 -41.53921,70.74902 -3.30509,2.5171 -6.33986,5.04754 -6.74394,5.62319 -0.90591,1.29057 -1.01461,25.96402 -0.11834,26.86029 1.03177,1.03177 11.17577,-4.80484 20.45665,-11.77026 z m -96.88683,-35.52862 c 7.82332,-2.41638 17.26549,-8.3604 21.63141,-13.61738 4.5612,-5.49211 8.96375,-14.87142 10.229,-21.79215 3.14134,-17.18262 -8.94519,-40.60487 -23.03586,-44.64077 -1.94774,-0.55788 -8.26634,-1.69214 -14.04134,-2.52057 -16.89326,-2.42337 -23.880583,-4.93403 -27.879192,-10.01744 -4.150715,-5.27678 -3.960813,-14.08628 0.41577,-19.28755 2.241125,-2.66343 3.116871,-2.9533 9.967522,-3.29924 l 7.51052,-0.37926 14.99269,-14.967699 C 134.25329,83.260469 141,76.18188 141,75.762503 141,75.343127 131.3108,75 119.46845,75 c -19.13839,0 -22.222698,0.230939 -27.749995,2.077796 -8.343162,2.787733 -14.56055,6.904216 -21.106074,13.974162 -6.421392,6.93587 -9.385529,13.955392 -10.257179,24.290542 -1.187824,14.08402 3.275143,26.32237 12.822327,35.16138 7.477069,6.92244 15.966361,10.99774 28.028951,13.45534 11.50537,2.34407 16.31926,4.2137 20.04985,7.78698 7.01362,6.71789 4.67281,18.11261 -4.58429,22.31563 -3.90746,1.77412 -7.23189,1.89564 -52.42204,1.91621 -40.790848,0.0186 -48.25,0.23944 -48.25,1.42874 0,2.08216 5.575416,14.13266 9.616981,20.78579 L 29.144807,224 h 45.322262 c 42.384871,0 45.738831,-0.12867 51.749721,-1.98524 z M 38,188.72707 c 0,-0.70012 -1.171696,-5.76262 -2.603769,-11.25 C 32.196982,165.21825 31.139913,146.30863 32.958584,133.87066 39.296717,90.523912 70.721675,55.255351 113.71651,43.235191 122.76295,40.70606 124.89373,40.5 142,40.5 c 16.23933,0 19.53869,0.283426 27,2.319387 15.93041,4.346916 29.85529,11.355467 42.12312,21.201054 L 217.32777,69 h 15.2771 c 8.4024,0 15.53116,-0.411078 15.84167,-0.913507 0.83476,-1.350671 -9.59495,-13.150713 -17.79612,-20.134295 -18.19211,-15.491229 -38.39013,-25.485525 -61.88224,-30.620304 -11.69854,-2.557005 -41.83782,-2.557005 -53.53636,0 -53.840856,11.768244 -93.381503,51.065 -105.3994404,104.749326 -3.2703681,14.60879 -3.2900063,41.78509 -0.04032,55.79646 1.1962414,5.15773 2.6875004,9.99523 3.3139074,10.75 C 14.687019,190.53273 38,190.62581 38,188.72707 Z m 449.24732,46.16387 c -21.5023,-3.58295 -37.09461,-17.4912 -41.13273,-36.69016 -3.85136,-18.31097 2.43463,-41.44196 15.13427,-55.69064 6.7557,-7.57972 17.89305,-14.79638 28.12062,-18.22128 7.42988,-2.48804 9.46621,-2.72552 23.63052,-2.75576 13.65346,-0.0292 16.29704,0.2423 22.19044,2.27861 14.85216,5.13178 25.2685,15.19833 29.94244,28.93693 1.83018,5.37965 2.29243,8.88471 2.27511,17.25136 -0.0256,12.3738 -1.86241,20.40045 -7.02683,30.70672 -12.63209,25.20896 -42.68758,39.2575 -73.13384,34.18422 z m 23.28269,-27.44077 C 526.80017,203.21233 536.24672,190.27733 536.4196,172 c 0.0691,-7.29984 -0.27259,-9.12991 -2.4196,-12.9613 -4.62695,-8.25688 -12.33181,-11.52633 -25.54134,-10.8381 -9.57041,0.49863 -15.35766,2.94462 -21.55898,9.11192 -6.36167,6.32676 -10.01331,14.96123 -10.65115,25.18513 -0.48053,7.70234 -0.29487,8.88736 2.18738,13.96089 5.17171,10.57059 17.50018,14.79286 32.0941,10.99163 z m 192.10995,27.05856 C 692.91808,232.4918 683.88187,227.94726 677.39533,221.81256 667.21119,212.18083 663,201.87127 663,186.57087 c 0,-18.55028 6.24258,-33.90148 18.95598,-46.61489 13.13796,-13.13795 28.06193,-18.96849 48.48236,-18.9412 6.32029,0.008 13.80996,0.6626 17.47346,1.52614 26.08641,6.14895 40.15417,27.06887 37.01659,55.04669 -3.0762,27.43042 -21.54318,48.78587 -48.42839,56.00321 -8.29669,2.22725 -25.32392,2.68884 -33.86004,0.91791 z m 25.6495,-26.99591 c 13.97223,-3.6393 23.3061,-14.57787 25.72114,-30.14318 2.23739,-14.42036 -3.41365,-25.04368 -15.10567,-28.39691 -5.94059,-1.70374 -17.31038,-1.16711 -23.37896,1.10344 -7.06287,2.64256 -14.20754,9.51928 -18.04458,17.36783 -2.4098,4.9292 -2.97499,7.52307 -3.31044,15.19303 -0.3508,8.02071 -0.10981,9.85782 1.81463,13.83318 5.02919,10.38893 17.9095,14.79187 32.30388,11.04261 z M 923.5,234.89085 c -12.48337,-1.80023 -30.56454,-9.36716 -31.29596,-13.0973 C 891.76888,219.5743 902.93228,199 904.57157,199 c 0.76911,0 3.54264,1.31271 6.16341,2.91713 C 928.81003,212.9826 958,212.32278 958,200.84874 c 0,-3.55639 -2.1102,-4.909 -13,-8.33286 -22.13783,-6.96036 -29.59004,-10.91707 -34.48067,-18.30731 -5.1666,-7.80726 -5.34654,-20.73689 -0.42993,-30.89325 4.7308,-9.77252 16.75245,-18.13891 30.04679,-20.91086 9.29126,-1.93728 26.39864,-1.89353 35.88115,0.0918 7.54412,1.57946 19.84244,6.65887 21.11743,8.72184 0.76762,1.242 -10.09413,23.7819 -11.46028,23.7819 -0.47616,0 -2.14298,-0.90947 -3.70405,-2.02105 -9.6384,-6.86314 -33.50124,-8.69482 -40.95899,-3.14395 -1.3813,1.02811 -2.93352,3.0543 -3.44939,4.50264 -1.50939,4.23775 1.91537,6.87608 13.72902,10.57641 21.93707,6.87122 28.32345,10.01806 32.93971,16.23078 3.48173,4.68583 4.76921,9.13118 4.76921,16.46688 0,26.32763 -28.59336,42.60146 -65.5,37.27914 z M 297.48999,232.9838 c -0.65491,-1.05966 19.8936,-104.77014 21.55009,-108.7656 0.9191,-2.21687 1.2805,-2.27377 12.70297,-2 L 343.5,122.5 l 12.06239,29.99832 c 7.39322,18.38644 12.61886,30.08395 13.5,30.21954 0.83284,0.12815 11.45605,-12.59664 25.25261,-30.24832 L 418.13,122 h 12.37598 c 6.80679,0 12.60698,0.37376 12.88931,0.83057 0.61383,0.9932 -20.53877,108.11858 -21.70431,109.91943 -0.95331,1.47295 -27.22268,1.81675 -28.11806,0.36799 -0.29981,-0.4851 1.47363,-10.91931 3.94099,-23.18713 4.67568,-23.2478 5.09932,-26.31727 3.55587,-25.76419 C 400.55816,184.35 393.46317,193.05 385.30314,203.5 l -14.83643,19 H 362.98336 355.5 L 347,202.1406 c -4.675,-11.19767 -8.95,-20.42267 -9.5,-20.5 -0.55,-0.0773 -3.28309,11.13638 -6.07353,24.91936 -2.79045,13.78298 -5.40451,25.59548 -5.80902,26.25 -0.93918,1.51962 -27.19543,1.6819 -28.12746,0.17384 z m 292.10652,0.17236 c -0.30472,-0.49305 3.0969,-19.14772 7.55914,-41.45484 4.46225,-22.30711 7.84181,-41.26555 7.51015,-42.12985 C 604.15379,148.23719 601.74364,148 588.69805,148 c -8.45059,0 -15.60207,-0.23735 -15.89216,-0.52744 -0.56081,-0.56081 3.76451,-22.96844 4.73745,-24.54268 C 577.88465,122.37762 597.59913,122 626.0904,122 c 40.88398,0 48.05421,0.21328 48.52626,1.44343 0.30465,0.79388 -0.49698,6.53138 -1.78138,12.75 L 670.5,147.5 654.10674,148 c -13.1304,0.40048 -16.57007,0.79855 -17.28165,2 -0.48861,0.825 -4.58665,19.95 -9.10674,42.5 l -8.21835,41 -14.67473,0.2763 c -8.0711,0.15197 -14.92404,-0.1271 -15.22876,-0.62014 z m 197.05846,0.0938 c -0.66113,-1.07081 21.14436,-109.44933 22.24172,-110.54669 0.52451,-0.52451 12.92825,-0.73378 29.25693,-0.49361 26.2242,0.38572 28.82606,0.5854 34.75352,2.66718 C 890.04839,130.89705 898,141.53463 898,158.44585 c 0,16.76481 -8.39858,31.18268 -22.53172,38.6803 -2.44138,1.29515 -4.61055,2.80909 -4.8204,3.36433 -0.20984,0.55524 3.579,7.98452 8.41966,16.50952 4.84065,8.525 8.45858,15.84964 8.03984,16.27698 -0.41873,0.42734 -7.7017,0.65234 -16.18436,0.5 L 855.5,233.5 l -6.18282,-11 c -3.40055,-6.05 -7.12895,-12.48044 -8.28533,-14.28987 l -2.10251,-3.28987 -8.21467,0.28987 L 822.5,205.5 l -2.59692,12.62989 c -1.4283,6.94643 -2.87668,13.35893 -3.21861,14.25 C 816.15099,233.7701 814.00911,234 801.5904,234 c -7.9598,0 -14.68074,-0.3375 -14.93543,-0.75 z m 70.43718,-56.94101 c 6.19115,-2.77309 9.20003,-7.20028 9.71296,-14.29141 0.35623,-4.92487 0.0836,-5.99635 -2.22293,-8.73755 -1.89044,-2.24665 -4.0408,-3.42712 -7.65479,-4.20218 -7.05431,-1.51288 -21.42997,-1.40363 -22.65145,0.17215 -1.33462,1.72174 -6.38782,27.75996 -5.62642,28.99192 0.37664,0.60943 5.11813,0.82631 12.23276,0.55955 8.87475,-0.33276 12.70193,-0.92124 16.20987,-2.49248 z"
       id="path2" />
  </g>
</svg>
